<svg version="1.1" viewBox="0.0 0.0 960.0 540.0" fill="none" stroke="none" stroke-linecap="square" stroke-miterlimit="10" xmlns:xlink="http://www.w3.org/1999/xlink" xmlns="http://www.w3.org/2000/svg"><clipPath id="g8e50864f4b_0_0.0"><path d="m0 0l960.0 0l0 540.0l-960.0 0l0 -540.0z" clip-rule="nonzero"/></clipPath><g clip-path="url(#g8e50864f4b_0_0.0)"><path fill="#000000" fill-opacity="0.0" d="m0 0l960.0 0l0 540.0l-960.0 0z" fill-rule="evenodd"/><path fill="#000000" fill-opacity="0.0" d="m93.82415 269.77954l53.385826 0l0 0.22045898l53.38582 0" fill-rule="evenodd"/><path stroke="#c2c2c2" stroke-width="1.0" stroke-linejoin="round" stroke-linecap="butt" d="m93.82415 269.77954l53.385826 0l0 0.22045898l53.38582 0" fill-rule="evenodd"/><path fill="#0944a1" d="m4.125984 251.61699l0 0c0 -5.0764923 4.115302 -9.191788 9.191785 -9.191788l150.08888 0c2.4378052 0 4.775772 0.9684143 6.4995728 2.6921997c1.7237854 1.7238007 2.6921997 4.0617676 2.6921997 6.499588l0 36.766037c0 5.076477 -4.1152954 9.191772 -9.191772 9.191772l-150.08888 0c-5.076483 0 -9.191785 -4.1152954 -9.191785 -9.191772z" fill-rule="evenodd"/><path stroke="#0944a1" stroke-width="1.0" stroke-linejoin="round" stroke-linecap="butt" d="m4.125984 251.61699l0 0c0 -5.0764923 4.115302 -9.191788 9.191785 -9.191788l150.08888 0c2.4378052 0 4.775772 0.9684143 6.4995728 2.6921997c1.7237854 1.7238007 2.6921997 4.0617676 2.6921997 6.499588l0 36.766037c0 5.076477 -4.1152954 9.191772 -9.191772 9.191772l-150.08888 0c-5.076483 0 -9.191785 -4.1152954 -9.191785 -9.191772z" fill-rule="evenodd"/><path fill="#ffffff" d="m36.761494 275.08l-1.375 0l0 -10.421875l1.375 0l0 10.421875zm3.5485992 -7.75l0.046875 0.984375q0.890625 -1.125 2.3125 -1.125q2.46875 0 2.484375 2.78125l0 5.109375l-1.328125 0l0 -5.125q0 -0.84375 -0.375 -1.234375q-0.375 -0.40625 -1.171875 -0.40625q-0.640625 0 -1.140625 0.34375q-0.484375 0.34375 -0.75 0.90625l0 5.515625l-1.328125 0l0 -7.75l1.25 0zm13.383575 3.96875q0 1.765625 -0.8125 2.84375q-0.8125 1.078125 -2.1875 1.078125q-1.40625 0 -2.21875 -0.890625l0 3.734375l-1.328125 0l0 -10.734375l1.21875 0l0.0625 0.859375q0.796875 -1.0 2.234375 -1.0q1.40625 0 2.21875 1.0625q0.8125 1.046875 0.8125 2.921875l0 0.125zm-1.328125 -0.15625q0 -1.3125 -0.5625 -2.0625q-0.546875 -0.765625 -1.53125 -0.765625q-1.203125 0 -1.796875 1.0625l0 3.703125q0.59375 1.0625 1.8125 1.0625q0.953125 0 1.515625 -0.75q0.5625 -0.765625 0.5625 -2.25zm7.7851715 3.171875q-0.765625 0.90625 -2.265625 0.90625q-1.234375 0 -1.890625 -0.71875q-0.640625 -0.71875 -0.65625 -2.125l0 -5.046875l1.328125 0l0 5.015625q0 1.75 1.4375 1.75q1.515625 0 2.015625 -1.125l0 -5.640625l1.328125 0l0 7.75l-1.265625 0l-0.03125 -0.765625zm5.095173 -8.859375l0 1.875l1.453125 0l0 1.03125l-1.453125 0l0 4.796875q0 0.46875 0.1875 0.703125q0.203125 0.234375 0.671875 0.234375q0.21875 0 0.625 -0.09375l0 1.078125q-0.53125 0.140625 -1.015625 0.140625q-0.890625 0 -1.34375 -0.53125q-0.4531288 -0.546875 -0.4531288 -1.53125l0 -4.796875l-1.40625 0l0 -1.03125l1.40625 0l0 -1.875l1.3281288 0zm8.197144 5.546875l0 4.078125l-1.375 0l0 -10.421875l3.84375 0q1.71875 0 2.6875 0.875q0.96875 0.875 0.96875 2.3125q0 1.515625 -0.953125 2.34375q-0.9375 0.8125 -2.71875 0.8125l-2.453125 0zm0 -1.125l2.46875 0q1.109375 0 1.6875 -0.515625q0.59375 -0.515625 0.59375 -1.5q0 -0.9375 -0.59375 -1.484375q-0.578125 -0.5625 -1.609375 -0.578125l-2.546875 0l0 4.078125zm10.793564 5.34375q-1.578125 0 -2.5625 -1.03125q-0.984375 -1.03125 -0.984375 -2.765625l0 -0.25q0 -1.140625 0.4375 -2.046875q0.4375 -0.90625 1.21875 -1.421875q0.796875 -0.515625 1.71875 -0.515625q1.515625 0 2.34375 1.0q0.84375 1.0 0.84375 2.84375l0 0.546875l-5.25 0q0.03125 1.15625 0.671875 1.859375q0.640625 0.703125 1.625 0.703125q0.703125 0 1.1875 -0.28125q0.5 -0.296875 0.859375 -0.765625l0.8125 0.625q-0.984375 1.5 -2.921875 1.5zm-0.171875 -6.9375q-0.796875 0 -1.34375 0.59375q-0.546875 0.578125 -0.671875 1.625l3.875 0l0 -0.109375q-0.046875 -1.0 -0.546875 -1.546875q-0.484375 -0.5625 -1.3125 -0.5625zm8.467789 0.234375q-0.3125 -0.046875 -0.65625 -0.046875q-1.296875 0 -1.765625 1.109375l0 5.5l-1.328125 0l0 -7.75l1.296875 0l0.015625 0.90625q0.65625 -1.046875 1.84375 -1.046875q0.390625 0 0.59375 0.109375l0 1.21875zm2.4593658 -1.1875l0.03125 0.859375q0.859375 -1.0 2.296875 -1.0q1.625 0 2.21875 1.25q0.375 -0.5625 1.0 -0.90625q0.625 -0.34375 1.46875 -0.34375q2.546875 0 2.578125 2.703125l0 5.1875l-1.3125 0l0 -5.109375q0 -0.828125 -0.390625 -1.234375q-0.375 -0.421875 -1.265625 -0.421875q-0.734375 0 -1.234375 0.453125q-0.484375 0.4375 -0.5625 1.171875l0 5.140625l-1.328125 0l0 -5.078125q0 -1.6875 -1.65625 -1.6875q-1.296875 0 -1.78125 1.109375l0 5.65625l-1.3125 0l0 -7.75l1.25 0zm13.033188 7.75l-1.328125 0l0 -7.75l1.328125 0l0 7.75zm-1.421875 -9.796875q0 -0.328125 0.1875 -0.546875q0.203125 -0.21875 0.578125 -0.21875q0.390625 0 0.59375 0.21875q0.203125 0.21875 0.203125 0.546875q0 0.328125 -0.203125 0.546875q-0.203125 0.203125 -0.59375 0.203125q-0.375 0 -0.578125 -0.203125q-0.1875 -0.21875 -0.1875 -0.546875zm5.337967 0.171875l0 1.875l1.453125 0l0 1.03125l-1.453125 0l0 4.796875q0 0.46875 0.1875 0.703125q0.203125 0.234375 0.671875 0.234375q0.21875 0 0.625 -0.09375l0 1.078125q-0.53125 0.140625 -1.015625 0.140625q-0.890625 0 -1.34375 -0.53125q-0.453125 -0.546875 -0.453125 -1.53125l0 -4.796875l-1.40625 0l0 -1.03125l1.40625 0l0 -1.875l1.328125 0zm8.056519 9.625l-1.328125 0l0 -7.75l1.328125 0l0 7.75zm-1.421875 -9.796875q0 -0.328125 0.1875 -0.546875q0.203125 -0.21875 0.578125 -0.21875q0.390625 0 0.59375 0.21875q0.203125 0.21875 0.203125 0.546875q0 0.328125 -0.203125 0.546875q-0.203125 0.203125 -0.59375 0.203125q-0.375 0 -0.578125 -0.203125q-0.1875 -0.21875 -0.1875 -0.546875zm4.791092 2.046875l0.046875 0.984375q0.890625 -1.125 2.3125 -1.125q2.4687424 0 2.4843674 2.78125l0 5.109375l-1.3281174 0l0 -5.125q0 -0.84375 -0.375 -1.234375q-0.375 -0.40625 -1.171875 -0.40625q-0.640625 0 -1.140625 0.34375q-0.484375 0.34375 -0.75 0.90625l0 5.515625l-1.328125 0l0 -7.75l1.25 0zm7.492943 7.75l0 -6.71875l-1.234375 0l0 -1.03125l1.234375 0l0 -0.78125q0 -1.25 0.65625 -1.921875q0.671875 -0.6875 1.890625 -0.6875q0.453125 0 0.90625 0.125l-0.078125 1.0625q-0.328125 -0.0625 -0.703125 -0.0625q-0.65625 0 -1.0 0.375q-0.34375 0.375 -0.34375 1.078125l0 0.8125l1.640625 0l0 1.03125l-1.640625 0l0 6.71875l-1.328125 0zm4.0881805 -3.9375q0 -1.140625 0.4375 -2.046875q0.453125 -0.921875 1.25 -1.40625q0.796875 -0.5 1.828125 -0.5q1.578125 0 2.546875 1.09375q0.984375 1.09375 0.984375 2.921875l0 0.09375q0 1.125 -0.4375 2.03125q-0.4375 0.890625 -1.25 1.390625q-0.796875 0.5 -1.84375 0.5q-1.5625 0 -2.546875 -1.09375q-0.96875 -1.09375 -0.96875 -2.890625l0 -0.09375zm1.328125 0.15625q0 1.28125 0.59375 2.0625q0.59375 0.78125 1.59375 0.78125q1.015625 0 1.609375 -0.78125q0.59375 -0.796875 0.59375 -2.21875q0 -1.28125 -0.609375 -2.0625q-0.59375 -0.796875 -1.59375 -0.796875q-0.984375 0 -1.59375 0.78125q-0.59375 0.78125 -0.59375 2.234375z" fill-rule="nonzero"/><path fill="#0d5ddf" d="m200.5958 251.61699l0 0c0 -5.0764923 4.1153107 -9.191788 9.191788 -9.191788l180.19911 0c2.4378052 0 4.7757874 0.9684143 6.4995728 2.6921997c1.7237854 1.7238007 2.6921997 4.0617676 2.6921997 6.499588l0 36.766037c0 5.076477 -4.1152954 9.191772 -9.191772 9.191772l-180.19911 0c-5.076477 0 -9.191788 -4.1152954 -9.191788 -9.191772z" fill-rule="evenodd"/><path stroke="#0d5ddf" stroke-width="1.0" stroke-linejoin="round" stroke-linecap="butt" d="m200.5958 251.61699l0 0c0 -5.0764923 4.1153107 -9.191788 9.191788 -9.191788l180.19911 0c2.4378052 0 4.7757874 0.9684143 6.4995728 2.6921997c1.7237854 1.7238007 2.6921997 4.0617676 2.6921997 6.499588l0 36.766037c0 5.076477 -4.1152954 9.191772 -9.191772 9.191772l-180.19911 0c-5.076477 0 -9.191788 -4.1152954 -9.191788 -9.191772z" fill-rule="evenodd"/><path fill="#ffffff" d="m259.53348 262.7675q-0.1875 1.65625 -1.21875 2.5625q-1.03125 0.890625 -2.7343597 0.890625q-1.84375 0 -2.953125 -1.3125q-1.109375 -1.328125 -1.109375 -3.546875l0 -1.0q0 -1.453125 0.515625 -2.546875q0.515625 -1.109375 1.46875 -1.703125q0.953125 -0.59373474 2.203125 -0.59373474q1.6562347 0 2.6562347 0.93748474q1.0 0.921875 1.171875 2.546875l-1.375 0q-0.1875 -1.234375 -0.78125 -1.796875q-0.59375 -0.5625 -1.6718597 -0.5625q-1.3125 0 -2.0625 0.984375q-0.75 0.96875 -0.75 2.765625l0 1.0q0 1.703125 0.703125 2.703125q0.71875 1.0 1.984375 1.0q1.1406097 0 1.7499847 -0.515625q0.625 -0.515625 0.828125 -1.8125l1.375 0zm3.1019592 3.3125l-1.328125 0l0 -10.999985l1.328125 0l0 10.999985zm6.9004517 0q-0.109375 -0.234375 -0.1875 -0.8125q-0.921875 0.953125 -2.203125 0.953125q-1.140625 0 -1.875 -0.640625q-0.734375 -0.65625 -0.734375 -1.640625q0 -1.21875 0.921875 -1.875q0.921875 -0.671875 2.578125 -0.671875l1.296875 0l0 -0.609375q0 -0.703125 -0.421875 -1.109375q-0.40625 -0.40625 -1.21875 -0.40625q-0.703125 0 -1.1875 0.359375q-0.484375 0.34375 -0.484375 0.859375l-1.328125 0q0 -0.578125 0.40625 -1.109375q0.421875 -0.546875 1.125 -0.859375q0.703125 -0.328125 1.546875 -0.328125q1.34375 0 2.09375 0.671875q0.765625 0.671875 0.796875 1.84375l0 3.5625q0 1.0625 0.265625 1.703125l0 0.109375l-1.390625 0zm-2.203125 -1.015625q0.625 0 1.1875 -0.3125q0.5625 -0.328125 0.8125 -0.84375l0 -1.578125l-1.046875 0q-2.421875 0 -2.421875 1.421875q0 0.625 0.40625 0.96875q0.421875 0.34375 1.0625 0.34375zm9.9096985 -1.03125q0 -0.546875 -0.40625 -0.84375q-0.40625 -0.296875 -1.421875 -0.5q-1.0 -0.21875 -1.59375 -0.515625q-0.578125 -0.3125 -0.875 -0.71875q-0.28125 -0.421875 -0.28125 -1.0q0 -0.9375 0.8125 -1.59375q0.8125 -0.671875 2.0625 -0.671875q1.3125 0 2.125 0.6875q0.828125 0.671875 0.828125 1.734375l-1.328125 0q0 -0.546875 -0.46875 -0.9375q-0.453125 -0.390625 -1.15625 -0.390625q-0.734375 0 -1.140625 0.3125q-0.40625 0.3125 -0.40625 0.828125q0 0.46875 0.375 0.71875q0.390625 0.25 1.375 0.46875q1.0 0.21875 1.609375 0.53125q0.609375 0.296875 0.90625 0.734375q0.296875 0.4375 0.296875 1.0625q0 1.03125 -0.828125 1.65625q-0.828125 0.625 -2.15625 0.625q-0.921875 0 -1.640625 -0.328125q-0.71875 -0.328125 -1.125 -0.921875q-0.390625 -0.59375 -0.390625 -1.28125l1.3125 0q0.046875 0.671875 0.53125 1.0625q0.5 0.390625 1.3125 0.390625q0.75 0 1.203125 -0.296875q0.46875 -0.3125 0.46875 -0.8125zm7.557129 0q0 -0.546875 -0.40625 -0.84375q-0.40625 -0.296875 -1.421875 -0.5q-1.0 -0.21875 -1.59375 -0.515625q-0.578125 -0.3125 -0.875 -0.71875q-0.28125 -0.421875 -0.28125 -1.0q0 -0.9375 0.8125 -1.59375q0.8125 -0.671875 2.0625 -0.671875q1.3125 0 2.125 0.6875q0.828125 0.671875 0.828125 1.734375l-1.328125 0q0 -0.546875 -0.46875 -0.9375q-0.453125 -0.390625 -1.15625 -0.390625q-0.734375 0 -1.140625 0.3125q-0.40625 0.3125 -0.40625 0.828125q0 0.46875 0.375 0.71875q0.390625 0.25 1.375 0.46875q1.0 0.21875 1.609375 0.53125q0.609375 0.296875 0.90625 0.734375q0.296875 0.4375 0.296875 1.0625q0 1.03125 -0.828125 1.65625q-0.828125 0.625 -2.15625 0.625q-0.921875 0 -1.640625 -0.328125q-0.71875 -0.328125 -1.125 -0.921875q-0.390625 -0.59375 -0.390625 -1.28125l1.3125 0q0.046875 0.671875 0.53125 1.0625q0.5 0.390625 1.3125 0.390625q0.75 0 1.203125 -0.296875q0.46875 -0.3125 0.46875 -0.8125zm4.479004 2.046875l-1.328125 0l0 -7.75l1.328125 0l0 7.75zm-1.421875 -9.796875q0 -0.32810974 0.1875 -0.54685974q0.203125 -0.21875 0.578125 -0.21875q0.390625 0 0.59375 0.21875q0.203125 0.21875 0.203125 0.54685974q0 0.328125 -0.203125 0.546875q-0.203125 0.203125 -0.59375 0.203125q-0.375 0 -0.578125 -0.203125q-0.1875 -0.21875 -0.1875 -0.546875zm4.197357 9.796875l0 -6.71875l-1.234375 0l0 -1.03125l1.234375 0l0 -0.78125q0 -1.25 0.65625 -1.9218597q0.671875 -0.6875 1.890625 -0.6875q0.453125 0 0.90625 0.125l-0.078125 1.0624847q-0.328125 -0.0625 -0.703125 -0.0625q-0.65625 0 -1.0 0.375q-0.34375 0.375 -0.34375 1.078125l0 0.8125l1.640625 0l0 1.03125l-1.640625 0l0 6.71875l-1.328125 0zm6.9631653 -1.9375l1.8125 -5.8125l1.40625 0l-3.109375 8.9375q-0.71875 1.9375 -2.296875 1.9375l-0.25 -0.015625l-0.5 -0.09375l0 -1.078125l0.359375 0.03125q0.671875 0 1.046875 -0.28125q0.390625 -0.265625 0.625 -0.984375l0.296875 -0.78125l-2.765625 -7.671875l1.453125 0l1.921875 5.8125zm9.60968 -2.140625l0 4.078125l-1.375 0l0 -10.42186l3.84375 0q1.71875 0 2.6875 0.87498474q0.96875 0.875 0.96875 2.3125q0 1.515625 -0.953125 2.34375q-0.9375 0.8125 -2.71875 0.8125l-2.453125 0zm0 -1.125l2.46875 0q1.109375 0 1.6875 -0.515625q0.59375 -0.515625 0.59375 -1.5q0 -0.9375 -0.59375 -1.484375q-0.578125 -0.5625 -1.609375 -0.578125l-2.546875 0l0 4.078125zm10.793579 5.34375q-1.578125 0 -2.5625 -1.03125q-0.984375 -1.03125 -0.984375 -2.765625l0 -0.25q0 -1.140625 0.4375 -2.046875q0.4375 -0.90625 1.21875 -1.421875q0.796875 -0.515625 1.71875 -0.515625q1.515625 0 2.34375 1.0q0.84375 1.0 0.84375 2.84375l0 0.546875l-5.25 0q0.03125 1.15625 0.671875 1.859375q0.640625 0.703125 1.625 0.703125q0.703125 0 1.1875 -0.28125q0.5 -0.296875 0.859375 -0.765625l0.8125 0.625q-0.984375 1.5 -2.921875 1.5zm-0.171875 -6.9375q-0.796875 0 -1.34375 0.59375q-0.546875 0.578125 -0.671875 1.625l3.875 0l0 -0.109375q-0.046875 -1.0 -0.546875 -1.546875q-0.484375 -0.5625 -1.3125 -0.5625zm8.467773 0.234375q-0.3125 -0.046875 -0.65625 -0.046875q-1.296875 0 -1.765625 1.109375l0 5.5l-1.328125 0l0 -7.75l1.296875 0l0.015625 0.90625q0.65625 -1.046875 1.84375 -1.046875q0.390625 0 0.59375 0.109375l0 1.21875zm2.459381 -1.1875l0.03125 0.859375q0.859375 -1.0 2.296875 -1.0q1.625 0 2.21875 1.25q0.375 -0.5625 1.0 -0.90625q0.625 -0.34375 1.46875 -0.34375q2.546875 0 2.578125 2.703125l0 5.1875l-1.3125 0l0 -5.109375q0 -0.828125 -0.390625 -1.234375q-0.375 -0.421875 -1.265625 -0.421875q-0.734375 0 -1.234375 0.453125q-0.484375 0.4375 -0.5625 1.171875l0 5.140625l-1.328125 0l0 -5.078125q0 -1.6875 -1.65625 -1.6875q-1.296875 0 -1.78125 1.109375l0 5.65625l-1.3125 0l0 -7.75l1.25 0zm13.033203 7.75l-1.328125 0l0 -7.75l1.328125 0l0 7.75zm-1.421875 -9.796875q0 -0.32810974 0.1875 -0.54685974q0.203125 -0.21875 0.578125 -0.21875q0.390625 0 0.59375 0.21875q0.203125 0.21875 0.203125 0.54685974q0 0.328125 -0.203125 0.546875q-0.203125 0.203125 -0.59375 0.203125q-0.375 0 -0.578125 -0.203125q-0.1875 -0.21875 -0.1875 -0.546875zm5.3379517 0.171875l0 1.875l1.453125 0l0 1.03125l-1.453125 0l0 4.796875q0 0.46875 0.1875 0.703125q0.203125 0.234375 0.671875 0.234375q0.21875 0 0.625 -0.09375l0 1.078125q-0.53125 0.140625 -1.015625 0.140625q-0.890625 0 -1.34375 -0.53125q-0.453125 -0.546875 -0.453125 -1.53125l0 -4.796875l-1.40625 0l0 -1.03125l1.40625 0l0 -1.875l1.328125 0z" fill-rule="nonzero"/><path fill="#ffffff" d="m232.16772 279.84564q0 -1.609375 0.421875 -3.09375q0.4375 -1.5 1.296875 -2.703125q0.859375 -1.21875 1.78125 -1.734375l0.28125 0.875q-1.046875 0.8125 -1.71875 2.453125q-0.671875 1.640625 -0.734375 3.6875l0 0.609375q0 2.765625 1.0 4.796875q0.609375 1.21875 1.453125 1.90625l-0.28125 0.796875q-0.953125 -0.53125 -1.8125 -1.765625q-1.6875 -2.4375 -1.6875 -5.828125zm13.275085 4.234375l-1.375 0l-5.25 -8.03125l0 8.03125l-1.390625 0l0 -10.421875l1.390625 0l5.25 8.0625l0 -8.0625l1.375 0l0 10.421875zm3.8233032 -1.125l4.9375 0l0 1.125l-6.328125 0l0 -10.421875l1.390625 0l0 9.296875zm7.870697 -2.953125l0 4.078125l-1.375 0l0 -10.421875l3.84375 0q1.71875 0 2.6875 0.875q0.96875 0.875 0.96875 2.3125q0 1.515625 -0.953125 2.34375q-0.9375 0.8125 -2.71875 0.8125l-2.453125 0zm0 -1.125l2.46875 0q1.109375 0 1.6875 -0.515625q0.59375 -0.515625 0.59375 -1.5q0 -0.9375 -0.59375 -1.484375q-0.578125 -0.5625 -1.609375 -0.578125l-2.546875 0l0 4.078125zm15.093048 -0.390625l2.90625 0l0 1.25l-2.90625 0l0 3.296875l-1.328125 0l0 -3.296875l-2.90625 0l0 -1.25l2.90625 0l0 -3.03125l1.328125 0l0 3.03125zm9.733704 4.46875l4.9375 0l0 1.125l-6.328125 0l0 -10.421875l1.390625 0l0 9.296875zm5.948822 -2.8125q0 -1.140625 0.4375 -2.046875q0.453125 -0.921875 1.25 -1.40625q0.796875 -0.5 1.828125 -0.5q1.578125 0 2.546875 1.09375q0.984375 1.09375 0.984375 2.921875l0 0.09375q0 1.125 -0.4375 2.03125q-0.4375 0.890625 -1.25 1.390625q-0.796875 0.5 -1.84375 0.5q-1.5625 0 -2.546875 -1.09375q-0.96875 -1.09375 -0.96875 -2.890625l0 -0.09375zm1.328125 0.15625q0 1.28125 0.59375 2.0625q0.59375 0.78125 1.59375 0.78125q1.015625 0 1.609375 -0.78125q0.59375 -0.796875 0.59375 -2.21875q0 -1.28125 -0.609375 -2.0625q-0.59375 -0.796875 -1.59375 -0.796875q-0.984375 0 -1.59375 0.78125q-0.59375 0.78125 -0.59375 2.234375zm7.0617676 -0.15625q0 -1.8125 0.828125 -2.875q0.84375 -1.078125 2.234375 -1.078125q1.40625 0 2.203125 1.0l0.0625 -0.859375l1.21875 0l0 7.5625q0 1.5 -0.890625 2.359375q-0.890625 0.875 -2.40625 0.875q-0.828125 0 -1.640625 -0.359375q-0.796875 -0.359375 -1.21875 -0.984375l0.6875 -0.78125q0.859375 1.046875 2.078125 1.046875q0.96875 0 1.5 -0.546875q0.546875 -0.546875 0.546875 -1.53125l0 -0.65625q-0.78125 0.90625 -2.15625 0.90625q-1.359375 0 -2.203125 -1.09375q-0.84375 -1.09375 -0.84375 -2.984375zm1.328125 0.15625q0 1.3125 0.53125 2.0625q0.546875 0.734375 1.515625 0.734375q1.25 0 1.828125 -1.140625l0 -3.53125q-0.609375 -1.109375 -1.8125 -1.109375q-0.96875 0 -1.515625 0.75q-0.546875 0.75 -0.546875 2.234375zm8.644562 3.78125l-1.328125 0l0 -7.75l1.328125 0l0 7.75zm-1.421875 -9.796875q0 -0.328125 0.1875 -0.546875q0.203125 -0.21875 0.578125 -0.21875q0.390625 0 0.59375 0.21875q0.203125 0.21875 0.203125 0.546875q0 0.328125 -0.203125 0.546875q-0.203125 0.203125 -0.59375 0.203125q-0.375 0 -0.578125 -0.203125q-0.1875 -0.21875 -0.1875 -0.546875zm8.056702 7.75q0 -0.546875 -0.40625 -0.84375q-0.40625 -0.296875 -1.421875 -0.5q-1.0 -0.21875 -1.59375 -0.515625q-0.578125 -0.3125 -0.875 -0.71875q-0.28125 -0.421875 -0.28125 -1.0q0 -0.9375 0.8125 -1.59375q0.8125 -0.671875 2.0625 -0.671875q1.3125 0 2.125 0.6875q0.828125 0.671875 0.828125 1.734375l-1.328125 0q0 -0.546875 -0.46875 -0.9375q-0.453125 -0.390625 -1.15625 -0.390625q-0.734375 0 -1.140625 0.3125q-0.40625 0.3125 -0.40625 0.828125q0 0.46875 0.375 0.71875q0.390625 0.25 1.375 0.46875q1.0 0.21875 1.609375 0.53125q0.609375 0.296875 0.90625 0.734375q0.296875 0.4375 0.296875 1.0625q0 1.03125 -0.828125 1.65625q-0.828125 0.625 -2.15625 0.625q-0.921875 0 -1.640625 -0.328125q-0.71875 -0.328125 -1.125 -0.921875q-0.390625 -0.59375 -0.390625 -1.28125l1.3125 0q0.046875 0.671875 0.53125 1.0625q0.5 0.390625 1.3125 0.390625q0.75 0 1.203125 -0.296875q0.46875 -0.3125 0.46875 -0.8125zm4.838379 -7.578125l0 1.875l1.453125 0l0 1.03125l-1.453125 0l0 4.796875q0 0.46875 0.1875 0.703125q0.203125 0.234375 0.671875 0.234375q0.21875 0 0.625 -0.09375l0 1.078125q-0.53125 0.140625 -1.015625 0.140625q-0.890625 0 -1.34375 -0.53125q-0.453125 -0.546875 -0.453125 -1.53125l0 -4.796875l-1.40625 0l0 -1.03125l1.40625 0l0 -1.875l1.328125 0zm4.428253 9.625l-1.328125 0l0 -7.75l1.328125 0l0 7.75zm-1.421875 -9.796875q0 -0.328125 0.1875 -0.546875q0.203125 -0.21875 0.578125 -0.21875q0.390625 0 0.59375 0.21875q0.203125 0.21875 0.203125 0.546875q0 0.328125 -0.203125 0.546875q-0.203125 0.203125 -0.59375 0.203125q-0.375 0 -0.578125 -0.203125q-0.1875 -0.21875 -0.1875 -0.546875zm6.6504517 8.859375q0.703125 0 1.234375 -0.421875q0.53125 -0.4375 0.59375 -1.078125l1.25 0q-0.03125 0.65625 -0.453125 1.265625q-0.421875 0.59375 -1.140625 0.953125q-0.703125 0.359375 -1.484375 0.359375q-1.578125 0 -2.515625 -1.046875q-0.9375 -1.0625 -0.9375 -2.890625l0 -0.21875q0 -1.140625 0.40625 -2.015625q0.421875 -0.875 1.203125 -1.359375q0.78125 -0.5 1.828125 -0.5q1.3125 0 2.171875 0.78125q0.859375 0.78125 0.921875 2.03125l-1.25 0q-0.0625 -0.75 -0.578125 -1.234375q-0.5 -0.484375 -1.265625 -0.484375q-1.0 0 -1.5625 0.734375q-0.546875 0.71875 -0.546875 2.09375l0 0.25q0 1.328125 0.546875 2.0625q0.546875 0.71875 1.578125 0.71875zm12.221802 -3.28125l-2.453125 0l0 4.21875l-1.375 0l0 -10.421875l3.453125 0q1.75 0 2.703125 0.8125q0.953125 0.796875 0.953125 2.328125q0 0.96875 -0.53125 1.703125q-0.53125 0.71875 -1.46875 1.0625l2.453125 4.4375l0 0.078125l-1.46875 0l-2.265625 -4.21875zm-2.453125 -1.125l2.109375 0q1.03125 0 1.625 -0.515625q0.609375 -0.53125 0.609375 -1.421875q0 -0.96875 -0.578125 -1.484375q-0.5625 -0.515625 -1.65625 -0.515625l-2.109375 0l0 3.9375zm10.664825 5.484375q-1.578125 0 -2.5625 -1.03125q-0.984375 -1.03125 -0.984375 -2.765625l0 -0.25q0 -1.140625 0.4375 -2.046875q0.4375 -0.90625 1.21875 -1.421875q0.796875 -0.515625 1.71875 -0.515625q1.515625 0 2.34375 1.0q0.84375 1.0 0.84375 2.84375l0 0.546875l-5.25 0q0.03125 1.15625 0.671875 1.859375q0.640625 0.703125 1.625 0.703125q0.703125 0 1.1875 -0.28125q0.5 -0.296875 0.859375 -0.765625l0.8125 0.625q-0.984375 1.5 -2.921875 1.5zm-0.171875 -6.9375q-0.796875 0 -1.34375 0.59375q-0.546875 0.578125 -0.671875 1.625l3.875 0l0 -0.109375q-0.046875 -1.0 -0.546875 -1.546875q-0.484375 -0.5625 -1.3125 -0.5625zm4.4052734 2.859375q0 -1.8125 0.828125 -2.875q0.84375 -1.078125 2.234375 -1.078125q1.40625 0 2.203125 1.0l0.0625 -0.859375l1.21875 0l0 7.5625q0 1.5 -0.890625 2.359375q-0.890625 0.875 -2.40625 0.875q-0.828125 0 -1.640625 -0.359375q-0.796875 -0.359375 -1.21875 -0.984375l0.6875 -0.78125q0.859375 1.046875 2.078125 1.046875q0.96875 0 1.5 -0.546875q0.546875 -0.546875 0.546875 -1.53125l0 -0.65625q-0.78125 0.90625 -2.15625 0.90625q-1.359375 0 -2.203125 -1.09375q-0.84375 -1.09375 -0.84375 -2.984375zm1.328125 0.15625q0 1.3125 0.53125 2.0625q0.546875 0.734375 1.515625 0.734375q1.25 0 1.828125 -1.140625l0 -3.53125q-0.609375 -1.109375 -1.8125 -1.109375q-0.96875 0 -1.515625 0.75q-0.546875 0.75 -0.546875 2.234375zm7.238312 3.09375q0 -0.34375 0.203125 -0.578125q0.203125 -0.234375 0.609375 -0.234375q0.40625 0 0.609375 0.234375q0.21875 0.234375 0.21875 0.578125q0 0.328125 -0.21875 0.546875q-0.203125 0.21875 -0.609375 0.21875q-0.40625 0 -0.609375 -0.21875q-0.203125 -0.21875 -0.203125 -0.546875zm6.8885193 -3.46875q0 1.59375 -0.421875 3.0625q-0.421875 1.453125 -1.28125 2.6875q-0.859375 1.25 -1.8125 1.765625l-0.28125 -0.796875q1.109375 -0.859375 1.78125 -2.625q0.671875 -1.78125 0.6875 -3.953125l0 -0.234375q0 -1.5 -0.328125 -2.78125q-0.3125 -1.296875 -0.875 -2.3125q-0.5625 -1.03125 -1.265625 -1.609375l0.28125 -0.8125q0.953125 0.53125 1.796875 1.765625q0.859375 1.21875 1.28125 2.6875q0.4375 1.46875 0.4375 3.15625z" fill-rule="nonzero"/><path fill="#307bf3" d="m800.9239 107.00806l0 0c0 -5.0764847 4.1152954 -9.19178 9.191772 -9.19178l128.1991 0c2.4378052 0 4.775818 0.9684143 6.4995728 2.6922073c1.7238159 1.723793 2.6922607 4.06176 2.6922607 6.4995728l0 36.766037c0 5.076477 -4.1153564 9.191788 -9.1918335 9.191788l-128.1991 0l0 0c-5.076477 0 -9.191772 -4.1153107 -9.191772 -9.191788z" fill-rule="evenodd"/><path stroke="#307bf3" stroke-width="1.0" stroke-linejoin="round" stroke-linecap="butt" d="m800.9239 107.00806l0 0c0 -5.0764847 4.1152954 -9.19178 9.191772 -9.19178l128.1991 0c2.4378052 0 4.775818 0.9684143 6.4995728 2.6922073c1.7238159 1.723793 2.6922607 4.06176 2.6922607 6.4995728l0 36.766037c0 5.076477 -4.1153564 9.191788 -9.1918335 9.191788l-128.1991 0l0 0c-5.076477 0 -9.191772 -4.1153107 -9.191772 -9.191788z" fill-rule="evenodd"/><path fill="#ffffff" d="m846.3036 125.83045q-1.765625 -0.515625 -2.578125 -1.25q-0.796875 -0.75 -0.796875 -1.828125q0 -1.234375 0.984375 -2.03125q0.984375 -0.8125 2.546875 -0.8125q1.078125 0 1.921875 0.421875q0.84375 0.40625 1.296875 1.140625q0.46875 0.734375 0.46875 1.59375l-1.390625 0q0 -0.9375 -0.609375 -1.484375q-0.59375 -0.546875 -1.6875 -0.546875q-1.015625 0 -1.578125 0.453125q-0.5625 0.453125 -0.5625 1.234375q0 0.640625 0.53125 1.09375q0.546875 0.4375 1.84375 0.796875q1.296875 0.359375 2.03125 0.8125q0.734375 0.4375 1.078125 1.03125q0.359375 0.578125 0.359375 1.375q0 1.2656174 -0.984375 2.0312424q-0.984375 0.75 -2.640625 0.75q-1.078125 0 -2.015625 -0.40625q-0.921875 -0.421875 -1.421875 -1.125q-0.5 -0.71875 -0.5 -1.6249924l1.375 0q0 0.9374924 0.6875 1.4843674q0.703125 0.546875 1.875 0.546875q1.09375 0 1.671875 -0.4375q0.578125 -0.453125 0.578125 -1.2187424q0 -0.765625 -0.546875 -1.171875q-0.53125 -0.421875 -1.9375 -0.828125zm10.194946 4.6406174q-0.109375 -0.234375 -0.1875 -0.8125q-0.921875 0.953125 -2.203125 0.953125q-1.140625 0 -1.875 -0.640625q-0.734375 -0.65625 -0.734375 -1.640625q0 -1.2187424 0.921875 -1.8749924q0.921875 -0.671875 2.578125 -0.671875l1.296875 0l0 -0.609375q0 -0.703125 -0.421875 -1.109375q-0.40625 -0.40625 -1.21875 -0.40625q-0.703125 0 -1.1875 0.359375q-0.484375 0.34375 -0.484375 0.859375l-1.328125 0q0 -0.578125 0.40625 -1.109375q0.421875 -0.546875 1.125 -0.859375q0.703125 -0.328125 1.546875 -0.328125q1.34375 0 2.09375 0.671875q0.765625 0.671875 0.796875 1.84375l0 3.5624924q0 1.0625 0.265625 1.703125l0 0.109375l-1.390625 0zm-2.203125 -1.015625q0.625 0 1.1875 -0.3125q0.5625 -0.328125 0.8125 -0.84375l0 -1.5781174l-1.046875 0q-2.421875 0 -2.421875 1.4218674q0 0.625 0.40625 0.96875q0.421875 0.34375 1.0625 0.34375zm6.644104 -6.7343674l0.03125 0.859375q0.859375 -1.0 2.296875 -1.0q1.625 0 2.21875 1.25q0.375 -0.5625 1.0 -0.90625q0.625 -0.34375 1.46875 -0.34375q2.546875 0 2.578125 2.703125l0 5.1874924l-1.3125 0l0 -5.1093674q0 -0.828125 -0.390625 -1.234375q-0.375 -0.421875 -1.265625 -0.421875q-0.734375 0 -1.234375 0.453125q-0.484375 0.4375 -0.5625 1.171875l0 5.1406174l-1.328125 0l0 -5.0781174q0 -1.6875 -1.65625 -1.6875q-1.296875 0 -1.78125 1.109375l0 5.6562424l-1.3125 0l0 -7.7499924l1.25 0zm14.814453 7.8906174q-1.578125 0 -2.5625 -1.03125q-0.984375 -1.03125 -0.984375 -2.7656174l0 -0.25q0 -1.140625 0.4375 -2.046875q0.4375 -0.90625 1.21875 -1.421875q0.796875 -0.515625 1.71875 -0.515625q1.515625 0 2.34375 1.0q0.84375 1.0 0.84375 2.84375l0 0.546875l-5.25 0q0.03125 1.1562424 0.671875 1.8593674q0.640625 0.703125 1.625 0.703125q0.703125 0 1.1875 -0.28125q0.5 -0.296875 0.859375 -0.765625l0.8125 0.625q-0.984375 1.5 -2.921875 1.5zm-0.171875 -6.9374924q-0.796875 0 -1.34375 0.59375q-0.546875 0.578125 -0.671875 1.625l3.875 0l0 -0.109375q-0.046875 -1.0 -0.546875 -1.546875q-0.484375 -0.5625 -1.3125 -0.5625zm7.4677734 2.90625l-3.484375 0l0 -1.078125l3.484375 0l0 1.078125zm0.98083496 -0.046875q0 -1.78125 0.84375 -2.859375q0.84375 -1.09375 2.203125 -1.09375q1.359375 0 2.15625 0.9375l0 -4.046875l1.328125 0l0 10.999992l-1.21875 0l-0.0625 -0.828125q-0.796875 0.96875 -2.21875 0.96875q-1.34375 0 -2.1875 -1.09375q-0.84375 -1.109375 -0.84375 -2.8749924l0 -0.109375zm1.3125 0.15625q0 1.3124924 0.546875 2.0624924q0.546875 0.734375 1.5 0.734375q1.265625 0 1.84375 -1.125l0 -3.5624924q-0.59375 -1.09375 -1.828125 -1.09375q-0.96875 0 -1.515625 0.75q-0.546875 0.75 -0.546875 2.234375zm12.046875 3.7812424q-0.109375 -0.234375 -0.1875 -0.8125q-0.921875 0.953125 -2.203125 0.953125q-1.140625 0 -1.875 -0.640625q-0.734375 -0.65625 -0.734375 -1.640625q0 -1.2187424 0.921875 -1.8749924q0.921875 -0.671875 2.578125 -0.671875l1.296875 0l0 -0.609375q0 -0.703125 -0.421875 -1.109375q-0.40625 -0.40625 -1.21875 -0.40625q-0.703125 0 -1.1875 0.359375q-0.484375 0.34375 -0.484375 0.859375l-1.328125 0q0 -0.578125 0.40625 -1.109375q0.421875 -0.546875 1.125 -0.859375q0.703125 -0.328125 1.546875 -0.328125q1.34375 0 2.09375 0.671875q0.765625 0.671875 0.796875 1.84375l0 3.5624924q0 1.0625 0.265625 1.703125l0 0.109375l-1.390625 0zm-2.203125 -1.015625q0.625 0 1.1875 -0.3125q0.5625 -0.328125 0.8125 -0.84375l0 -1.5781174l-1.046875 0q-2.421875 0 -2.421875 1.4218674q0 0.625 0.40625 0.96875q0.421875 0.34375 1.0625 0.34375zm7.817871 -0.921875l1.8125 -5.8124924l1.40625 0l-3.109375 8.937492q-0.71875 1.9375 -2.296875 1.9375l-0.25 -0.015625l-0.5 -0.09375l0 -1.078125l0.359375 0.03125q0.671875 0 1.046875 -0.28125q0.390625 -0.265625 0.625 -0.984375l0.296875 -0.78125l-2.765625 -7.6718674l1.453125 0l1.921875 5.8124924z" fill-rule="nonzero"/><path fill="#000000" fill-opacity="0.0" d="m399.17847 270.0l61.320435 0l0 -144.59842l340.41187 0" fill-rule="evenodd"/><path stroke="#666666" stroke-width="1.0" stroke-linejoin="round" stroke-linecap="butt" d="m399.17847 270.0l61.320435 0l0 -144.59842l340.41187 0" fill-rule="evenodd"/><path fill="#000000" fill-opacity="0.0" d="m461.4777 252.48819l168.47244 0l0 35.02362l-168.47244 0z" fill-rule="evenodd"/><path fill="#000000" d="m479.69644 270.69318q0 1.53125 -0.515625 2.671875q-0.515625 1.140625 -1.453125 1.75q-0.9375 0.59375 -2.203125 0.59375q-1.234375 0 -2.1875 -0.59375q-0.953125 -0.609375 -1.484375 -1.734375q-0.515625 -1.125 -0.53125 -2.59375l0 -0.75q0 -1.5 0.515625 -2.65625q0.53125 -1.15625 1.484375 -1.765625q0.953125 -0.609375 2.1875 -0.609375q1.25 0 2.203125 0.609375q0.953125 0.59375 1.46875 1.75q0.515625 1.140625 0.515625 2.671875l0 0.65625zm-1.359375 -0.671875q0 -1.859375 -0.75 -2.84375q-0.734375 -0.984375 -2.078125 -0.984375q-1.296875 0 -2.046875 0.984375q-0.75 0.984375 -0.765625 2.75l0 0.765625q0 1.796875 0.75 2.828125q0.75 1.03125 2.078125 1.03125q1.328125 0 2.0625 -0.96875q0.734375 -0.984375 0.75 -2.78125l0 -0.78125zm5.779297 3.75l1.90625 -5.953125l1.359375 0l-2.78125 7.75l-1.0 0l-2.8125 -7.75l1.359375 0l1.96875 5.953125zm7.662262 1.9375q-1.578125 0 -2.5625 -1.03125q-0.984375 -1.03125 -0.984375 -2.765625l0 -0.25q0 -1.140625 0.4375 -2.046875q0.4375 -0.90625 1.21875 -1.421875q0.796875 -0.515625 1.71875 -0.515625q1.515625 0 2.34375 1.0q0.84375 1.0 0.84375 2.84375l0 0.546875l-5.25 0q0.03125 1.15625 0.671875 1.859375q0.640625 0.703125 1.625 0.703125q0.703125 0 1.1875 -0.28125q0.5 -0.296875 0.859375 -0.765625l0.8125 0.625q-0.984375 1.5 -2.921875 1.5zm-0.171875 -6.9375q-0.796875 0 -1.34375 0.59375q-0.546875 0.578125 -0.671875 1.625l3.875 0l0 -0.109375q-0.046875 -1.0 -0.546875 -1.546875q-0.484375 -0.5625 -1.3125 -0.5625zm8.467804 0.234375q-0.3125 -0.046875 -0.65625 -0.046875q-1.296875 0 -1.765625 1.109375l0 5.5l-1.328125 0l0 -7.75l1.296875 0l0.015625 0.90625q0.65625 -1.046875 1.84375 -1.046875q0.390625 0 0.59375 0.109375l0 1.21875zm6.6345215 -3.0625l0 1.875l1.453125 0l0 1.03125l-1.453125 0l0 4.796875q0 0.46875 0.1875 0.703125q0.203125 0.234375 0.671875 0.234375q0.21875 0 0.625 -0.09375l0 1.078125q-0.53125 0.140625 -1.015625 0.140625q-0.890625 0 -1.34375 -0.53125q-0.453125 -0.546875 -0.453125 -1.53125l0 -4.796875l-1.40625 0l0 -1.03125l1.40625 0l0 -1.875l1.328125 0zm4.3188477 2.8125q0.875 -1.078125 2.2812805 -1.078125q2.46875 0 2.484375 2.78125l0 5.109375l-1.328125 0l0 -5.125q0 -0.84375 -0.375 -1.234375q-0.375 -0.40625 -1.171875 -0.40625q-0.640625 0 -1.1406555 0.34375q-0.484375 0.34375 -0.75 0.90625l0 5.515625l-1.328125 0l0 -11.0l1.328125 0l0 4.1875zm9.963043 6.953125q-1.578125 0 -2.5625 -1.03125q-0.984375 -1.03125 -0.984375 -2.765625l0 -0.25q0 -1.140625 0.4375 -2.046875q0.4375 -0.90625 1.21875 -1.421875q0.796875 -0.515625 1.71875 -0.515625q1.515625 0 2.34375 1.0q0.84375 1.0 0.84375 2.84375l0 0.546875l-5.25 0q0.03125 1.15625 0.671875 1.859375q0.640625 0.703125 1.625 0.703125q0.703125 0 1.1875 -0.28125q0.5 -0.296875 0.859375 -0.765625l0.8125 0.625q-0.984375 1.5 -2.921875 1.5zm-0.171875 -6.9375q-0.796875 0 -1.34375 0.59375q-0.546875 0.578125 -0.671875 1.625l3.875 0l0 -0.109375q-0.046875 -1.0 -0.546875 -1.546875q-0.484375 -0.5625 -1.3125 -0.5625zm16.22107 3.484375q-0.1875 1.65625 -1.21875 2.5625q-1.03125 0.890625 -2.734375 0.890625q-1.84375 0 -2.953125 -1.3125q-1.109375 -1.328125 -1.109375 -3.546875l0 -1.0q0 -1.453125 0.515625 -2.546875q0.515625 -1.109375 1.46875 -1.703125q0.953125 -0.59375 2.203125 -0.59375q1.65625 0 2.65625 0.9375q1.0 0.921875 1.171875 2.546875l-1.375 0q-0.1875 -1.234375 -0.78125 -1.796875q-0.59375 -0.5625 -1.671875 -0.5625q-1.3125 0 -2.0625 0.984375q-0.75 0.96875 -0.75 2.765625l0 1.0q0 1.703125 0.703125 2.703125q0.71875 1.0 1.984375 1.0q1.140625 0 1.75 -0.515625q0.625 -0.515625 0.828125 -1.8125l1.375 0zm1.3206787 -0.625q0 -1.140625 0.4375 -2.046875q0.453125 -0.921875 1.25 -1.40625q0.796875 -0.5 1.828125 -0.5q1.578125 0 2.546875 1.09375q0.984375 1.09375 0.984375 2.921875l0 0.09375q0 1.125 -0.4375 2.03125q-0.4375 0.890625 -1.25 1.390625q-0.796875 0.5 -1.84375 0.5q-1.5625 0 -2.546875 -1.09375q-0.96875 -1.09375 -0.96875 -2.890625l0 -0.09375zm1.328125 0.15625q0 1.28125 0.59375 2.0625q0.59375 0.78125 1.59375 0.78125q1.015625 0 1.609375 -0.78125q0.59375 -0.796875 0.59375 -2.21875q0 -1.28125 -0.609375 -2.0625q-0.59375 -0.796875 -1.59375 -0.796875q-0.984375 0 -1.59375 0.78125q-0.59375 0.78125 -0.59375 2.234375zm12.155518 3.015625q-0.765625 0.90625 -2.265625 0.90625q-1.234375 0 -1.890625 -0.71875q-0.640625 -0.71875 -0.65625 -2.125l0 -5.046875l1.328125 0l0 5.015625q0 1.75 1.4375 1.75q1.515625 0 2.015625 -1.125l0 -5.640625l1.328125 0l0 7.75l-1.265625 0l-0.03125 -0.765625zm4.548279 -6.984375l0.046875 0.984375q0.890625 -1.125 2.3125 -1.125q2.46875 0 2.484375 2.78125l0 5.109375l-1.328125 0l0 -5.125q0 -0.84375 -0.375 -1.234375q-0.375 -0.40625 -1.171875 -0.40625q-0.640625 0 -1.140625 0.34375q-0.484375 0.34375 -0.75 0.90625l0 5.515625l-1.328125 0l0 -7.75l1.25 0zm8.633606 -1.875l0 1.875l1.453125 0l0 1.03125l-1.453125 0l0 4.796875q0 0.46875 0.1875 0.703125q0.203125 0.234375 0.671875 0.234375q0.21875 0 0.625 -0.09375l0 1.078125q-0.53125 0.140625 -1.015625 0.140625q-0.890625 0 -1.34375 -0.53125q-0.453125 -0.546875 -0.453125 -1.53125l0 -4.796875l-1.40625 0l0 -1.03125l1.40625 0l0 -1.875l1.328125 0zm6.2094727 9.765625q-1.578125 0 -2.5625 -1.03125q-0.984375 -1.03125 -0.984375 -2.765625l0 -0.25q0 -1.140625 0.4375 -2.046875q0.4375 -0.90625 1.21875 -1.421875q0.796875 -0.515625 1.71875 -0.515625q1.515625 0 2.34375 1.0q0.84375 1.0 0.84375 2.84375l0 0.546875l-5.25 0q0.03125 1.15625 0.671875 1.859375q0.640625 0.703125 1.625 0.703125q0.703125 0 1.1875 -0.28125q0.5 -0.296875 0.859375 -0.765625l0.8125 0.625q-0.984375 1.5 -2.921875 1.5zm-0.171875 -6.9375q-0.796875 0 -1.34375 0.59375q-0.546875 0.578125 -0.671875 1.625l3.875 0l0 -0.109375q-0.046875 -1.0 -0.546875 -1.546875q-0.484375 -0.5625 -1.3125 -0.5625zm8.467773 0.234375q-0.3125 -0.046875 -0.65625 -0.046875q-1.296875 0 -1.765625 1.109375l0 5.5l-1.328125 0l0 -7.75l1.296875 0l0.015625 0.90625q0.65625 -1.046875 1.84375 -1.046875q0.390625 0 0.59375 0.109375l0 1.21875zm2.7718506 3.625q0 -0.84375 0.171875 -1.328125q0.1875 -0.5 0.75 -1.109375l0.9375 -0.96875q0.59375 -0.671875 0.59375 -1.453125q0 -0.75 -0.390625 -1.171875q-0.390625 -0.4375 -1.140625 -0.4375q-0.734375 0 -1.1875 0.390625q-0.4375 0.390625 -0.4375 1.03125l-1.328125 0q0.015625 -1.15625 0.828125 -1.859375q0.8125 -0.71875 2.125 -0.71875q1.34375 0 2.09375 0.734375q0.765625 0.71875 0.765625 1.984375q0 1.25 -1.15625 2.46875l-0.78125 0.78125q-0.53125 0.578125 -0.53125 1.65625l-1.3125 0zm-0.0625 2.265625q0 -0.3125 0.1875 -0.53125q0.203125 -0.21875 0.59375 -0.21875q0.390625 0 0.578125 0.21875q0.203125 0.21875 0.203125 0.546875q0 0.3125 -0.203125 0.53125q-0.1875 0.203125 -0.578125 0.203125q-0.390625 0 -0.59375 -0.203125q-0.1875 -0.21875 -0.1875 -0.546875z" fill-rule="nonzero"/><path fill="#000000" fill-opacity="0.0" d="m458.4252 381.02362l61.795258 0l0 35.02362l-61.795258 0z" fill-rule="evenodd"/><path fill="#000000" d="m476.64395 404.1036l-1.375 0l-5.25 -8.03125l0 8.03125l-1.390625 0l0 -10.421875l1.390625 0l5.25 8.0625l0 -8.0625l1.375 0l0 10.421875zm1.8858032 -3.9375q0 -1.140625 0.4375 -2.046875q0.453125 -0.921875 1.25 -1.40625q0.796875 -0.5 1.828125 -0.5q1.578125 0 2.546875 1.09375q0.984375 1.09375 0.984375 2.921875l0 0.09375q0 1.125 -0.4375 2.03125q-0.4375 0.890625 -1.25 1.390625q-0.796875 0.5 -1.84375 0.5q-1.5625 0 -2.546875 -1.09375q-0.96875 -1.09375 -0.96875 -2.890625l0 -0.09375zm1.328125 0.15625q0 1.28125 0.59375 2.0625q0.59375 0.78125 1.59375 0.78125q1.015625 0 1.609375 -0.78125q0.59375 -0.796875 0.59375 -2.21875q0 -1.28125 -0.609375 -2.0625q-0.59375 -0.796875 -1.59375 -0.796875q-0.984375 0 -1.59375 0.78125q-0.59375 0.78125 -0.59375 2.234375z" fill-rule="nonzero"/><path fill="#000000" fill-opacity="0.0" d="m461.4777 129.21785l61.795258 0l0 35.02362l-61.795258 0z" fill-rule="evenodd"/><path fill="#000000" d="m474.86832 147.11035l2.71875 -5.234375l1.5625 0l-3.59375 6.53125l0 3.890625l-1.375 0l0 -3.890625l-3.59375 -6.53125l1.578125 0l2.703125 5.234375zm8.1649475 5.328125q-1.578125 0 -2.5625 -1.03125q-0.984375 -1.03125 -0.984375 -2.765625l0 -0.25q0 -1.140625 0.4375 -2.046875q0.4375 -0.90625 1.21875 -1.421875q0.796875 -0.515625 1.71875 -0.515625q1.515625 0 2.34375 1.0q0.84375 1.0 0.84375 2.84375l0 0.546875l-5.25 0q0.03125 1.15625 0.671875 1.859375q0.640625 0.703125 1.625 0.703125q0.703125 0 1.1875 -0.28125q0.5 -0.296875 0.859375 -0.765625l0.8125 0.625q-0.984375 1.5 -2.921875 1.5zm-0.171875 -6.9375q-0.796875 0 -1.34375 0.59375q-0.546875 0.578125 -0.671875 1.625l3.875 0l0 -0.109375q-0.046875 -1.0 -0.546875 -1.546875q-0.484375 -0.5625 -1.3125 -0.5625zm9.233429 4.75q0 -0.546875 -0.40625 -0.84375q-0.40625 -0.296875 -1.421875 -0.5q-1.0 -0.21875 -1.59375 -0.515625q-0.578125 -0.3125 -0.875 -0.71875q-0.28125 -0.421875 -0.28125 -1.0q0 -0.9375 0.8125 -1.59375q0.8125 -0.671875 2.0625 -0.671875q1.3125 0 2.125 0.6875q0.828125 0.671875 0.828125 1.734375l-1.328125 0q0 -0.546875 -0.46875 -0.9375q-0.453125 -0.390625 -1.15625 -0.390625q-0.734375 0 -1.140625 0.3125q-0.40625 0.3125 -0.40625 0.828125q0 0.46875 0.375 0.71875q0.390625 0.25 1.375 0.46875q1.0 0.21875 1.609375 0.53125q0.609375 0.296875 0.90625 0.734375q0.296875 0.4375 0.296875 1.0625q0 1.03125 -0.828125 1.65625q-0.828125 0.625 -2.15625 0.625q-0.921875 0 -1.640625 -0.328125q-0.71875 -0.328125 -1.125 -0.921875q-0.390625 -0.59375 -0.390625 -1.28125l1.3125 0q0.046875 0.671875 0.53125 1.0625q0.5 0.390625 1.3125 0.390625q0.75 0 1.203125 -0.296875q0.46875 -0.3125 0.46875 -0.8125z" fill-rule="nonzero"/><path fill="#000000" fill-opacity="0.0" d="m399.17847 270.0l61.32019 0l0 144.53543l112.31763 0" fill-rule="evenodd"/><path stroke="#666666" stroke-width="1.0" stroke-linejoin="round" stroke-linecap="butt" d="m399.17847 270.0l61.32019 0l0 144.53543l112.31763 0" fill-rule="evenodd"/><path fill="#0d5ddf" d="m572.8163 396.1524l0 0c0 -5.076477 4.1152954 -9.191772 9.191772 -9.191772l128.1991 0c2.4378052 0 4.775818 0.9684143 6.4995728 2.6921997c1.7238159 1.7238159 2.6921997 4.0617676 2.6921997 6.4995728l0 36.766052c0 5.076477 -4.1152954 9.191772 -9.191772 9.191772l-128.1991 0l0 0c-5.076477 0 -9.191772 -4.1152954 -9.191772 -9.191772z" fill-rule="evenodd"/><path stroke="#0d5ddf" stroke-width="1.0" stroke-linejoin="round" stroke-linecap="butt" d="m572.8163 396.1524l0 0c0 -5.076477 4.1152954 -9.191772 9.191772 -9.191772l128.1991 0c2.4378052 0 4.775818 0.9684143 6.4995728 2.6921997c1.7238159 1.7238159 2.6921997 4.0617676 2.6921997 6.4995728l0 36.766052c0 5.076477 -4.1152954 9.191772 -9.191772 9.191772l-128.1991 0l0 0c-5.076477 0 -9.191772 -4.1152954 -9.191772 -9.191772z" fill-rule="evenodd"/><path fill="#ffffff" d="m603.4289 415.5373l0 4.078125l-1.375 0l0 -10.421875l3.84375 0q1.71875 0 2.6875 0.875q0.96875 0.875 0.96875 2.3125q0 1.515625 -0.953125 2.34375q-0.9375 0.8125 -2.71875 0.8125l-2.453125 0zm0 -1.125l2.46875 0q1.109375 0 1.6875 -0.515625q0.59375 -0.515625 0.59375 -1.5q0 -0.9375 -0.59375 -1.484375q-0.578125 -0.5625 -1.609375 -0.578125l-2.546875 0l0 4.078125zm11.417908 -1.359375q-0.3125 -0.046875 -0.65625 -0.046875q-1.296875 0 -1.765625 1.109375l0 5.5l-1.328125 0l0 -7.75l1.296875 0l0.015625 0.90625q0.65625 -1.046875 1.84375 -1.046875q0.390625 0 0.59375 0.109375l0 1.21875zm4.292053 6.703125q-1.578125 0 -2.5625 -1.03125q-0.984375 -1.03125 -0.984375 -2.765625l0 -0.25q0 -1.140625 0.4375 -2.046875q0.4375 -0.90625 1.21875 -1.421875q0.796875 -0.515625 1.71875 -0.515625q1.515625 0 2.34375 1.0q0.84375 1.0 0.84375 2.84375l0 0.546875l-5.25 0q0.03125 1.15625 0.671875 1.859375q0.640625 0.703125 1.625 0.703125q0.703125 0 1.1875 -0.28125q0.5 -0.296875 0.859375 -0.765625l0.8125 0.625q-0.984375 1.5 -2.921875 1.5zm-0.171875 -6.9375q-0.796875 0 -1.34375 0.59375q-0.546875 0.578125 -0.671875 1.625l3.875 0l0 -0.109375q-0.046875 -1.0 -0.546875 -1.546875q-0.484375 -0.5625 -1.3125 -0.5625zm4.4052734 2.859375q0 -1.78125 0.84375 -2.859375q0.84375 -1.09375 2.203125 -1.09375q1.359375 0 2.15625 0.9375l0 -4.046875l1.328125 0l0 11.0l-1.21875 0l-0.0625 -0.828125q-0.796875 0.96875 -2.21875 0.96875q-1.34375 0 -2.1875 -1.09375q-0.84375 -1.109375 -0.84375 -2.875l0 -0.109375zm1.3125 0.15625q0 1.3125 0.546875 2.0625q0.546875 0.734375 1.5 0.734375q1.265625 0 1.84375 -1.125l0 -3.5625q-0.59375 -1.09375 -1.828125 -1.09375q-0.96875 0 -1.515625 0.75q-0.546875 0.75 -0.546875 2.234375zm8.703125 3.78125l-1.328125 0l0 -7.75l1.328125 0l0 7.75zm-1.421875 -9.796875q0 -0.328125 0.1875 -0.546875q0.203125 -0.21875 0.578125 -0.21875q0.390625 0 0.59375 0.21875q0.203125 0.21875 0.203125 0.546875q0 0.328125 -0.203125 0.546875q-0.203125 0.203125 -0.59375 0.203125q-0.375 0 -0.578125 -0.203125q-0.1875 -0.21875 -0.1875 -0.546875zm6.6504517 8.859375q0.703125 0 1.234375 -0.421875q0.53125 -0.4375 0.59375 -1.078125l1.25 0q-0.03125 0.65625 -0.453125 1.265625q-0.421875 0.59375 -1.140625 0.953125q-0.703125 0.359375 -1.484375 0.359375q-1.578125 0 -2.515625 -1.046875q-0.9375 -1.0625 -0.9375 -2.890625l0 -0.21875q0 -1.140625 0.40625 -2.015625q0.421875 -0.875 1.203125 -1.359375q0.78125 -0.5 1.828125 -0.5q1.3125 0 2.171875 0.78125q0.859375 0.78125 0.921875 2.03125l-1.25 0q-0.0625 -0.75 -0.578125 -1.234375q-0.5 -0.484375 -1.265625 -0.484375q-1.0 0 -1.5625 0.734375q-0.546875 0.71875 -0.546875 2.09375l0 0.25q0 1.328125 0.546875 2.0625q0.546875 0.71875 1.578125 0.71875zm6.359131 -8.6875l0 1.875l1.453125 0l0 1.03125l-1.453125 0l0 4.796875q0 0.46875 0.1875 0.703125q0.203125 0.234375 0.671875 0.234375q0.21875 0 0.625 -0.09375l0 1.078125q-0.53125 0.140625 -1.015625 0.140625q-0.890625 0 -1.34375 -0.53125q-0.453125 -0.546875 -0.453125 -1.53125l0 -4.796875l-1.40625 0l0 -1.03125l1.40625 0l0 -1.875l1.328125 0zm6.5721436 5.390625q0 -1.609375 0.421875 -3.09375q0.4375 -1.5 1.296875 -2.703125q0.859375 -1.21875 1.78125 -1.734375l0.28125 0.875q-1.046875 0.8125 -1.71875 2.453125q-0.671875 1.640625 -0.734375 3.6875l0 0.609375q0 2.765625 1.0 4.796875q0.609375 1.21875 1.453125 1.90625l-0.28125 0.796875q-0.953125 -0.53125 -1.8125 -1.765625q-1.6875 -2.4375 -1.6875 -5.828125zm12.962585 2.875q-0.53125 0.75 -1.484375 1.125q-0.953125 0.375 -2.203125 0.375q-1.28125 0 -2.265625 -0.59375q-0.984375 -0.59375 -1.53125 -1.6875q-0.53125 -1.109375 -0.546875 -2.5625l0 -0.921875q0 -2.34375 1.09375 -3.640625q1.09375 -1.296875 3.09375 -1.296875q1.625 0 2.625 0.84375q1.0 0.828125 1.21875 2.359375l-1.375 0q-0.390625 -2.078125 -2.46875 -2.078125q-1.375 0 -2.09375 0.96875q-0.703125 0.96875 -0.71875 2.8125l0 0.859375q0 1.75 0.796875 2.78125q0.8125 1.03125 2.171875 1.03125q0.78125 0 1.359375 -0.171875q0.578125 -0.171875 0.953125 -0.578125l0 -2.34375l-2.40625 0l0 -1.109375l3.78125 0l0 3.828125zm3.6706543 0.234375l4.9375 0l0 1.125l-6.328125 0l0 -10.421875l1.390625 0l0 9.296875zm8.2769165 -9.296875l3.40625 8.5l3.40625 -8.5l1.78125 0l0 10.421875l-1.375 0l0 -4.0625l0.125 -4.375l-3.421875 8.4375l-1.046875 0l-3.40625 -8.421875l0.125 4.359375l0 4.0625l-1.375 0l0 -10.421875l1.78125 0zm13.873718 6.265625q0 1.59375 -0.421875 3.0625q-0.421875 1.453125 -1.28125 2.6875q-0.859375 1.25 -1.8125 1.765625l-0.28125 -0.796875q1.109375 -0.859375 1.78125 -2.625q0.671875 -1.78125 0.6875 -3.953125l0 -0.234375q0 -1.5 -0.328125 -2.78125q-0.3125 -1.296875 -0.875 -2.3125q-0.5625 -1.03125 -1.265625 -1.609375l0.28125 -0.8125q0.953125 0.53125 1.796875 1.765625q0.859375 1.21875 1.28125 2.6875q0.4375 1.46875 0.4375 3.15625z" fill-rule="nonzero"/><path fill="#307bf3" d="m800.9344 396.1524l0 0c0 -5.076477 4.1152954 -9.191772 9.191772 -9.191772l128.1991 0c2.4378052 0 4.775818 0.9684143 6.4995728 2.6921997c1.7238159 1.7238159 2.6922607 4.0617676 2.6922607 6.4995728l0 36.766052c0 5.076477 -4.1153564 9.191772 -9.1918335 9.191772l-128.1991 0l0 0c-5.076477 0 -9.191772 -4.1152954 -9.191772 -9.191772z" fill-rule="evenodd"/><path stroke="#307bf3" stroke-width="1.0" stroke-linejoin="round" stroke-linecap="butt" d="m800.9344 396.1524l0 0c0 -5.076477 4.1152954 -9.191772 9.191772 -9.191772l128.1991 0c2.4378052 0 4.775818 0.9684143 6.4995728 2.6921997c1.7238159 1.7238159 2.6922607 4.0617676 2.6922607 6.4995728l0 36.766052c0 5.076477 -4.1153564 9.191772 -9.1918335 9.191772l-128.1991 0l0 0c-5.076477 0 -9.191772 -4.1152954 -9.191772 -9.191772z" fill-rule="evenodd"/><path fill="#ffffff" d="m852.39734 407.8967l-4.375 0l-0.96875 2.71875l-1.421875 0l3.96875 -10.421875l1.203125 0l4.0 10.421875l-1.421875 0l-0.984375 -2.71875zm-3.953125 -1.125l3.546875 0l-1.78125 -4.875l-1.765625 4.875zm14.092163 0.0625q0 1.765625 -0.8125 2.84375q-0.8125 1.078125 -2.1875 1.078125q-1.40625 0 -2.21875 -0.890625l0 3.734375l-1.328125 0l0 -10.734375l1.21875 0l0.0625 0.859375q0.796875 -1.0 2.234375 -1.0q1.40625 0 2.21875 1.0625q0.8125 1.046875 0.8125 2.921875l0 0.125zm-1.328125 -0.15625q0 -1.3125 -0.5625 -2.0625q-0.546875 -0.765625 -1.53125 -0.765625q-1.203125 0 -1.796875 1.0625l0 3.703125q0.59375 1.0625 1.8125 1.0625q0.953125 0 1.515625 -0.75q0.5625 -0.765625 0.5625 -2.25zm9.550842 0.15625q0 1.765625 -0.8125 2.84375q-0.8125 1.078125 -2.1875 1.078125q-1.40625 0 -2.21875 -0.890625l0 3.734375l-1.328125 0l0 -10.734375l1.21875 0l0.0625 0.859375q0.796875 -1.0 2.234375 -1.0q1.40625 0 2.21875 1.0625q0.8125 1.046875 0.8125 2.921875l0 0.125zm-1.328125 -0.15625q0 -1.3125 -0.5625 -2.0625q-0.546875 -0.765625 -1.53125 -0.765625q-1.203125 0 -1.796875 1.0625l0 3.703125q0.59375 1.0625 1.8125 1.0625q0.953125 0 1.515625 -0.75q0.5625 -0.765625 0.5625 -2.25zm6.7539062 -2.625q-0.3125 -0.046875 -0.65625 -0.046875q-1.296875 0 -1.765625 1.109375l0 5.5l-1.328125 0l0 -7.75l1.296875 0l0.015625 0.90625q0.65625 -1.046875 1.84375 -1.046875q0.390625 0 0.59375 0.109375l0 1.21875zm0.7223511 2.625q0 -1.140625 0.4375 -2.046875q0.453125 -0.921875 1.25 -1.40625q0.796875 -0.5 1.828125 -0.5q1.578125 0 2.546875 1.09375q0.984375 1.09375 0.984375 2.921875l0 0.09375q0 1.125 -0.4375 2.03125q-0.4375 0.890625 -1.25 1.390625q-0.796875 0.5 -1.84375 0.5q-1.5625 0 -2.546875 -1.09375q-0.96875 -1.09375 -0.96875 -2.890625l0 -0.09375zm1.328125 0.15625q0 1.28125 0.59375 2.0625q0.59375 0.78125 1.59375 0.78125q1.015625 0 1.609375 -0.78125q0.59375 -0.796875 0.59375 -2.21875q0 -1.28125 -0.609375 -2.0625q-0.59375 -0.796875 -1.59375 -0.796875q-0.984375 0 -1.59375 0.78125q-0.59375 0.78125 -0.59375 2.234375zm9.829346 1.984375l1.90625 -5.953125l1.359375 0l-2.78125 7.75l-1.0 0l-2.8125 -7.75l1.359375 0l1.96875 5.953125zm9.210449 1.796875q-0.109375 -0.234375 -0.1875 -0.8125q-0.921875 0.953125 -2.203125 0.953125q-1.140625 0 -1.875 -0.640625q-0.734375 -0.65625 -0.734375 -1.640625q0 -1.21875 0.921875 -1.875q0.921875 -0.671875 2.578125 -0.671875l1.296875 0l0 -0.609375q0 -0.703125 -0.421875 -1.109375q-0.40625 -0.40625 -1.21875 -0.40625q-0.703125 0 -1.1875 0.359375q-0.484375 0.34375 -0.484375 0.859375l-1.328125 0q0 -0.578125 0.40625 -1.109375q0.421875 -0.546875 1.125 -0.859375q0.703125 -0.328125 1.546875 -0.328125q1.34375 0 2.09375 0.671875q0.765625 0.671875 0.796875 1.84375l0 3.5625q0 1.0625 0.265625 1.703125l0 0.109375l-1.390625 0zm-2.203125 -1.015625q0.625 0 1.1875 -0.3125q0.5625 -0.328125 0.8125 -0.84375l0 -1.578125l-1.046875 0q-2.421875 0 -2.421875 1.421875q0 0.625 0.40625 0.96875q0.421875 0.34375 1.0625 0.34375zm6.831604 1.015625l-1.328125 0l0 -11.0l1.328125 0l0 11.0z" fill-rule="nonzero"/><path fill="#ffffff" d="m843.74506 424.53732l0 4.078125l-1.375 0l0 -10.421875l3.84375 0q1.71875 0 2.6875 0.875q0.96875 0.875 0.96875 2.3125q0 1.515625 -0.953125 2.34375q-0.9375 0.8125 -2.71875 0.8125l-2.453125 0zm0 -1.125l2.46875 0q1.109375 0 1.6875 -0.515625q0.59375 -0.515625 0.59375 -1.5q0 -0.9375 -0.59375 -1.484375q-0.578125 -0.5625 -1.609375 -0.578125l-2.546875 0l0 4.078125zm11.417908 -1.359375q-0.3125 -0.046875 -0.65625 -0.046875q-1.296875 0 -1.765625 1.109375l0 5.5l-1.328125 0l0 -7.75l1.296875 0l0.015625 0.90625q0.65625 -1.046875 1.84375 -1.046875q0.390625 0 0.59375 0.109375l0 1.21875zm4.292053 6.703125q-1.578125 0 -2.5625 -1.03125q-0.984375 -1.03125 -0.984375 -2.765625l0 -0.25q0 -1.140625 0.4375 -2.046875q0.4375 -0.90625 1.21875 -1.421875q0.796875 -0.515625 1.71875 -0.515625q1.515625 0 2.34375 1.0q0.84375 1.0 0.84375 2.84375l0 0.546875l-5.25 0q0.03125 1.15625 0.671875 1.859375q0.640625 0.703125 1.625 0.703125q0.703125 0 1.1875 -0.28125q0.5 -0.296875 0.859375 -0.765625l0.8125 0.625q-0.984375 1.5 -2.921875 1.5zm-0.171875 -6.9375q-0.796875 0 -1.34375 0.59375q-0.546875 0.578125 -0.671875 1.625l3.875 0l0 -0.109375q-0.046875 -1.0 -0.546875 -1.546875q-0.484375 -0.5625 -1.3125 -0.5625zm4.4052734 2.859375q0 -1.78125 0.84375 -2.859375q0.84375 -1.09375 2.203125 -1.09375q1.359375 0 2.15625 0.9375l0 -4.046875l1.328125 0l0 11.0l-1.21875 0l-0.0625 -0.828125q-0.796875 0.96875 -2.21875 0.96875q-1.34375 0 -2.1875 -1.09375q-0.84375 -1.109375 -0.84375 -2.875l0 -0.109375zm1.3125 0.15625q0 1.3125 0.546875 2.0625q0.546875 0.734375 1.5 0.734375q1.265625 0 1.84375 -1.125l0 -3.5625q-0.59375 -1.09375 -1.828125 -1.09375q-0.96875 0 -1.515625 0.75q-0.546875 0.75 -0.546875 2.234375zm8.703125 3.78125l-1.328125 0l0 -7.75l1.328125 0l0 7.75zm-1.421875 -9.796875q0 -0.328125 0.1875 -0.546875q0.203125 -0.21875 0.578125 -0.21875q0.390625 0 0.59375 0.21875q0.203125 0.21875 0.203125 0.546875q0 0.328125 -0.203125 0.546875q-0.203125 0.203125 -0.59375 0.203125q-0.375 0 -0.578125 -0.203125q-0.1875 -0.21875 -0.1875 -0.546875zm6.6504517 8.859375q0.703125 0 1.234375 -0.421875q0.53125 -0.4375 0.59375 -1.078125l1.25 0q-0.03125 0.65625 -0.453125 1.265625q-0.421875 0.59375 -1.140625 0.953125q-0.703125 0.359375 -1.484375 0.359375q-1.578125 0 -2.515625 -1.046875q-0.9375 -1.0625 -0.9375 -2.890625l0 -0.21875q0 -1.140625 0.40625 -2.015625q0.421875 -0.875 1.203125 -1.359375q0.78125 -0.5 1.828125 -0.5q1.3125 0 2.171875 0.78125q0.859375 0.78125 0.921875 2.03125l-1.25 0q-0.0625 -0.75 -0.578125 -1.234375q-0.5 -0.484375 -1.265625 -0.484375q-1.0 0 -1.5625 0.734375q-0.546875 0.71875 -0.546875 2.09375l0 0.25q0 1.328125 0.546875 2.0625q0.546875 0.71875 1.578125 0.71875zm6.359131 -8.6875l0 1.875l1.453125 0l0 1.03125l-1.453125 0l0 4.796875q0 0.46875 0.1875 0.703125q0.203125 0.234375 0.671875 0.234375q0.21875 0 0.625 -0.09375l0 1.078125q-0.53125 0.140625 -1.015625 0.140625q-0.890625 0 -1.34375 -0.53125q-0.453125 -0.546875 -0.453125 -1.53125l0 -4.796875l-1.40625 0l0 -1.03125l1.40625 0l0 -1.875l1.328125 0zm4.4282227 9.625l-1.328125 0l0 -7.75l1.328125 0l0 7.75zm-1.421875 -9.796875q0 -0.328125 0.1875 -0.546875q0.203125 -0.21875 0.578125 -0.21875q0.390625 0 0.59375 0.21875q0.203125 0.21875 0.203125 0.546875q0 0.328125 -0.203125 0.546875q-0.203125 0.203125 -0.59375 0.203125q-0.375 0 -0.578125 -0.203125q-0.1875 -0.21875 -0.1875 -0.546875zm3.1973267 5.859375q0 -1.140625 0.4375 -2.046875q0.453125 -0.921875 1.25 -1.40625q0.796875 -0.5 1.828125 -0.5q1.578125 0 2.546875 1.09375q0.984375 1.09375 0.984375 2.921875l0 0.09375q0 1.125 -0.4375 2.03125q-0.4375 0.890625 -1.25 1.390625q-0.796875 0.5 -1.84375 0.5q-1.5625 0 -2.546875 -1.09375q-0.96875 -1.09375 -0.96875 -2.890625l0 -0.09375zm1.328125 0.15625q0 1.28125 0.59375 2.0625q0.59375 0.78125 1.59375 0.78125q1.015625 0 1.609375 -0.78125q0.59375 -0.796875 0.59375 -2.21875q0 -1.28125 -0.609375 -2.0625q-0.59375 -0.796875 -1.59375 -0.796875q-0.984375 0 -1.59375 0.78125q-0.59375 0.78125 -0.59375 2.234375zm8.624268 -3.96875l0.046875 0.984375q0.890625 -1.125 2.3125 -1.125q2.46875 0 2.484375 2.78125l0 5.109375l-1.328125 0l0 -5.125q0 -0.84375 -0.375 -1.234375q-0.375 -0.40625 -1.171875 -0.40625q-0.640625 0 -1.140625 0.34375q-0.484375 0.34375 -0.75 0.90625l0 5.515625l-1.328125 0l0 -7.75l1.25 0z" fill-rule="nonzero"/><path fill="#000000" fill-opacity="0.0" d="m800.9344 414.53543l-40.76758 0l0 0.06298828l-40.775757 0" fill-rule="evenodd"/><path stroke="#666666" stroke-width="1.0" stroke-linejoin="round" stroke-linecap="butt" d="m800.9344 414.53543l-40.76758 0l0 0.06298828l-40.775757 0" fill-rule="evenodd"/></g></svg>